<svg width="85" height="28" viewBox="0 0 85 28" fill="none" xmlns="http://www.w3.org/2000/svg">
<path d="M7.38065 27.0748C5.92344 27.0748 4.63656 26.8098 3.52 26.2799C2.40344 25.769 1.51398 25.0404 0.851616 24.0941L3.20775 21.738C3.73764 22.3625 4.3243 22.8356 4.96775 23.1574C5.63011 23.498 6.42495 23.6683 7.35226 23.6683C8.50667 23.6683 9.41506 23.375 10.0774 22.7883C10.7587 22.2017 11.0994 21.3879 11.0994 20.347V16.9122L11.7239 13.9032L11.1277 10.8941V7.28898H14.8181V20.2903C14.8181 21.6529 14.4963 22.8356 13.8529 23.8387C13.2284 24.8606 12.3579 25.6554 11.2413 26.2232C10.1247 26.7909 8.83785 27.0748 7.38065 27.0748ZM7.21033 20.6309C5.98022 20.6309 4.87312 20.3376 3.88904 19.7509C2.90495 19.1453 2.12904 18.3221 1.56129 17.2812C1.01248 16.2404 0.738068 15.0765 0.738068 13.7896C0.738068 12.5027 1.01248 11.3483 1.56129 10.3264C2.12904 9.30446 2.90495 8.50016 3.88904 7.91349C4.87312 7.3079 5.98022 7.00511 7.21033 7.00511C8.23226 7.00511 9.13119 7.20382 9.9071 7.60124C10.7019 7.99866 11.3265 8.54747 11.7806 9.24769C12.2348 9.92898 12.4809 10.7333 12.5187 11.6606V15.9754C12.4809 16.8838 12.2254 17.6976 11.7523 18.4167C11.2981 19.1169 10.6736 19.6658 9.87871 20.0632C9.1028 20.4417 8.21334 20.6309 7.21033 20.6309ZM7.94839 17.2528C8.62968 17.2528 9.21635 17.1109 9.70839 16.827C10.2194 16.5242 10.6168 16.1174 10.9006 15.6064C11.1845 15.0765 11.3265 14.4804 11.3265 13.818C11.3265 13.1367 11.1845 12.5406 10.9006 12.0296C10.6168 11.5187 10.2194 11.1212 9.70839 10.8374C9.21635 10.5346 8.62968 10.3832 7.94839 10.3832C7.2671 10.3832 6.67097 10.5346 6.16 10.8374C5.64904 11.1212 5.25162 11.5281 4.96775 12.058C4.68387 12.569 4.54194 13.1556 4.54194 13.818C4.54194 14.4615 4.68387 15.0481 4.96775 15.578C5.25162 16.089 5.64904 16.4959 6.16 16.7987C6.67097 17.1015 7.2671 17.2528 7.94839 17.2528Z" fill="white"/>
<path d="M18.0855 20.9999V0.476074H21.8042V20.9999H18.0855Z" fill="white"/>
<path d="M31.5429 21.2838C30.1614 21.2838 28.9124 20.9716 27.7959 20.347C26.6982 19.7036 25.8182 18.8425 25.1559 17.7638C24.5124 16.6662 24.1907 15.4455 24.1907 14.1019C24.1907 12.7582 24.5124 11.5565 25.1559 10.4967C25.7993 9.41801 26.6793 8.5664 27.7959 7.94188C28.9124 7.29844 30.152 6.97672 31.5146 6.97672C32.915 6.97672 34.164 7.29844 35.2617 7.94188C36.3782 8.5664 37.2582 9.41801 37.9017 10.4967C38.5451 11.5565 38.8668 12.7582 38.8668 14.1019C38.8668 15.4455 38.5451 16.6662 37.9017 17.7638C37.2582 18.8425 36.3782 19.7036 35.2617 20.347C34.164 20.9716 32.9245 21.2838 31.5429 21.2838ZM31.5146 17.8206C32.2148 17.8206 32.8298 17.6692 33.3597 17.3664C33.9085 17.0447 34.3249 16.6094 34.6088 16.0606C34.9115 15.4928 35.0629 14.8494 35.0629 14.1303C35.0629 13.4111 34.9115 12.7772 34.6088 12.2283C34.306 11.6795 33.8896 11.2537 33.3597 10.9509C32.8298 10.6292 32.2148 10.4683 31.5146 10.4683C30.8333 10.4683 30.2277 10.6292 29.6978 10.9509C29.1679 11.2537 28.7515 11.6795 28.4488 12.2283C28.146 12.7772 27.9946 13.4111 27.9946 14.1303C27.9946 14.8494 28.146 15.4928 28.4488 16.0606C28.7515 16.6094 29.1679 17.0447 29.6978 17.3664C30.2277 17.6692 30.8333 17.8206 31.5146 17.8206Z" fill="white"/>
<path d="M45.9731 21.3122C45.1972 21.3122 44.4308 21.2081 43.6738 20.9999C42.9357 20.7918 42.2544 20.5079 41.6299 20.1483C41.0054 19.7698 40.466 19.3156 40.0118 18.7858L42.226 16.5432C42.6992 17.0731 43.248 17.4705 43.8725 17.7354C44.497 18.0004 45.1878 18.1328 45.9447 18.1328C46.5503 18.1328 47.0045 18.0477 47.3073 17.8774C47.629 17.707 47.7899 17.4516 47.7899 17.1109C47.7899 16.7324 47.6196 16.4391 47.2789 16.2309C46.9572 16.0227 46.5314 15.8524 46.0015 15.7199C45.4716 15.5685 44.9133 15.4077 44.3267 15.2374C43.7589 15.0481 43.2101 14.8116 42.6802 14.5277C42.1503 14.2249 41.7151 13.818 41.3744 13.307C41.0527 12.7772 40.8918 12.0959 40.8918 11.2632C40.8918 10.3926 41.1 9.63564 41.5164 8.9922C41.9516 8.34876 42.5667 7.84726 43.3615 7.48769C44.1564 7.12812 45.0931 6.94833 46.1718 6.94833C47.3073 6.94833 48.3293 7.14704 49.2376 7.54446C50.165 7.94188 50.9314 8.53801 51.537 9.33285L49.2944 11.5754C48.8781 11.0645 48.405 10.6954 47.8751 10.4683C47.3641 10.2412 46.8058 10.1277 46.2002 10.1277C45.6514 10.1277 45.2256 10.2128 44.9228 10.3832C44.6389 10.5535 44.497 10.7901 44.497 11.0928C44.497 11.4335 44.6579 11.6984 44.9796 11.8877C45.3202 12.0769 45.7555 12.2473 46.2854 12.3987C46.8153 12.5311 47.3641 12.692 47.9318 12.8812C48.5185 13.0516 49.0673 13.2976 49.5783 13.6193C50.1082 13.941 50.534 14.3668 50.8557 14.8967C51.1964 15.4266 51.3667 16.1079 51.3667 16.9406C51.3667 18.2842 50.8841 19.3535 49.9189 20.1483C48.9538 20.9242 47.6385 21.3122 45.9731 21.3122Z" fill="white"/>
<path d="M58.5865 21.3122C57.8106 21.3122 57.0442 21.2081 56.2872 20.9999C55.5491 20.7918 54.8678 20.5079 54.2433 20.1483C53.6188 19.7698 53.0794 19.3156 52.6252 18.7858L54.8394 16.5432C55.3126 17.0731 55.8614 17.4705 56.4859 17.7354C57.1104 18.0004 57.8012 18.1328 58.5581 18.1328C59.1637 18.1328 59.6179 18.0477 59.9207 17.8774C60.2424 17.707 60.4033 17.4516 60.4033 17.1109C60.4033 16.7324 60.233 16.4391 59.8923 16.2309C59.5706 16.0227 59.1448 15.8524 58.6149 15.7199C58.085 15.5685 57.5267 15.4077 56.9401 15.2374C56.3723 15.0481 55.8235 14.8116 55.2936 14.5277C54.7637 14.2249 54.3285 13.818 53.9878 13.307C53.6661 12.7772 53.5052 12.0959 53.5052 11.2632C53.5052 10.3926 53.7134 9.63564 54.1298 8.9922C54.565 8.34876 55.1801 7.84726 55.9749 7.48769C56.7698 7.12812 57.7065 6.94833 58.7852 6.94833C59.9207 6.94833 60.9427 7.14704 61.8511 7.54446C62.7784 7.94188 63.5448 8.53801 64.1504 9.33285L61.9078 11.5754C61.4915 11.0645 61.0184 10.6954 60.4885 10.4683C59.9775 10.2412 59.4192 10.1277 58.8136 10.1277C58.2648 10.1277 57.839 10.2128 57.5362 10.3832C57.2523 10.5535 57.1104 10.7901 57.1104 11.0928C57.1104 11.4335 57.2713 11.6984 57.593 11.8877C57.9336 12.0769 58.3689 12.2473 58.8988 12.3987C59.4287 12.5311 59.9775 12.692 60.5452 12.8812C61.1319 13.0516 61.6807 13.2976 62.1917 13.6193C62.7216 13.941 63.1474 14.3668 63.4691 14.8967C63.8098 15.4266 63.9801 16.1079 63.9801 16.9406C63.9801 18.2842 63.4975 19.3535 62.5323 20.1483C61.5672 20.9242 60.2519 21.3122 58.5865 21.3122Z" fill="white"/>
<path d="M70.8025 21.1135L65.0683 7.28898H69.0993L72.9032 17.849H71.5406L75.4864 7.28898H79.5458L73.4425 21.0851L70.8025 21.1135ZM66.9987 26.7341L71.1716 17.9058L73.4425 21.0851L70.9445 26.7341H66.9987Z" fill="white"/>
<path d="M82.044 21.2838C81.3627 21.2838 80.8045 21.0567 80.3692 20.6025C79.9339 20.1483 79.7163 19.5901 79.7163 18.9277C79.7163 18.2653 79.9339 17.707 80.3692 17.2528C80.8045 16.7987 81.3627 16.5716 82.044 16.5716C82.7064 16.5716 83.2552 16.7987 83.6905 17.2528C84.1258 17.707 84.3434 18.2653 84.3434 18.9277C84.3434 19.5901 84.1258 20.1483 83.6905 20.6025C83.2552 21.0567 82.7064 21.2838 82.044 21.2838Z" fill="white"/>
</svg>
